Patient4_TMGait_0pt4_02_right_12_GRF.mot
version=1
nRows=45
nColumns=19
inDegrees=no
endheader
time	F1x	F1y	F1z	M1x	M1y	M1z	F2x	F2y	F2z	M2x	M2y	M2z	EC1x	EC1y	EC1z	EC2x	EC2y	EC2z
15.37	13.6605	735.5041	45.2843	-248.5018	-42.4592	790.5565	1.7906	-17.5925	-6.871	-0.65252	3.4045	-22.144	-0.0592	0.0182	-0.0073	-0.0462	0.0165	0.9585
15.3833	13.4907	729.0585	48.3624	-245.7803	-45.0344	783.0017	1.0846	-11.056	-4.7798	-0.073375	2.4693	-14.038	-0.0592	0.0182	-0.0073	-0.0462	0.0165	0.9585
15.3966	13.5801	722.6898	50.8983	-243.0731	-46.9954	775.0319	0.50827	-5.5076	-2.9541	0.40551	1.6298	-7.1565	-0.0592	0.0182	-0.0073	-0.0462	0.0165	0.9585
15.4099	13.8841	717.4532	52.8051	-240.7548	-48.295	767.8065	0.067235	-1.2551	-1.5316	0.76951	0.96307	-1.8787	-0.0592	0.0182	-0.0073	-0.0462	0.0165	0.9585
15.4231	14.3285	714.3283	54.0813	-239.1643	-48.9715	762.449	-0.2448	1.719	-0.52345	1.0261	0.4798	1.8072	-0.0592	0.0182	-0.0073	-0.0462	0.0165	0.9585
15.4364	14.8266	714.0109	54.8489	-238.5375	-49.1723	759.7993	-0.46117	3.5898	0.1199	1.189	0.16845	4.1216	-0.0592	0.0182	-0.0073	-0.0462	0.0165	0.9585
15.4497	15.343	716.7949	55.2087	-238.9749	-49.0041	760.2536	-0.62583	4.6047	0.4807	1.2764	0.0017964	5.3799	-0.0592	0.0182	-0.0073	-0.0462	0.0165	0.9585
15.463	15.901	722.5779	55.306	-240.4357	-48.5942	763.7612	-0.7456	4.9868	0.63323	1.2979	-0.050711	5.8544	-0.0592	0.0182	-0.0073	-0.0462	0.0165	0.9585
15.4763	16.5449	730.9194	55.2336	-242.7584	-48.0131	769.8898	-0.8635	4.9127	0.65076	1.2548	-0.015619	5.7765	-0.0592	0.0182	-0.0073	-0.0462	0.0165	0.9585
15.4896	17.3072	741.0962	55.0938	-245.681	-47.3443	777.8977	-0.9906	4.4793	0.58277	1.1342	0.086096	5.2664	-0.0592	0.0182	-0.0073	-0.0462	0.0165	0.9585
15.5029	18.2	752.1976	54.9378	-248.8735	-46.63	786.8486	-1.1412	3.7526	0.47189	0.92168	0.23304	4.4082	-0.0592	0.0182	-0.0073	-0.0462	0.0165	0.9585
15.5161	19.2236	763.2078	54.8259	-251.9694	-45.9256	795.7034	-1.306	2.735	0.34024	0.59304	0.40908	3.211	-0.0592	0.0182	-0.0073	-0.0462	0.0165	0.9585
15.5294	20.3516	773.0704	54.7899	-254.5917	-45.2695	803.3908	-1.4544	1.4023	0.21043	0.12571	0.57892	1.6466	-0.0592	0.0182	-0.0073	-0.0462	0.0165	0.9585
15.5427	21.5492	780.7446	54.8835	-256.3764	-44.7279	808.8633	-1.5325	-0.22865	0.093926	-0.48248	0.70644	-0.26694	-0.0592	0.0182	-0.0073	-0.0462	0.0165	0.9585
15.556	22.7588	785.3595	55.142	-257.028	-44.3552	811.2616	-1.4374	-2.0899	0.015815	-1.2038	0.72472	-2.4585	-0.0592	0.0182	-0.0073	-0.0462	0.0165	0.9585
15.5693	23.8962	786.3886	55.6037	-256.379	-44.2162	810.1015	-1.0644	-3.9768	-0.0010218	-1.9527	0.56203	-4.6756	-0.0592	0.0182	-0.0073	-0.0462	0.0165	0.9585
15.5826	24.8825	783.7798	56.2709	-254.4334	-44.3427	805.3821	-0.24415	-5.4822	0.079655	-2.559	0.11344	-6.4448	-0.0592	0.0182	-0.0073	-0.0462	0.0165	0.9585
15.5959	25.6799	778.0133	57.1321	-251.3747	-44.7452	797.6407	1.1934	-5.923	0.29668	-2.741	-0.72984	-6.9669	-0.0592	0.0182	-0.0073	-0.0462	0.0165	0.9585
15.6091	26.3293	769.9545	58.1711	-247.513	-45.4086	787.7653	3.3991	-4.3124	0.70016	-2.0882	-2.0807	-5.0846	-0.0592	0.0182	-0.0073	-0.0462	0.0165	0.9585
15.6224	26.9317	760.6296	59.3781	-243.2085	-46.3031	776.7829	6.4636	0.67162	1.325	-0.052094	-4.0094	0.75231	-0.0592	0.0182	-0.0073	-0.0462	0.0165	0.9585
15.6357	27.6454	750.9722	60.7064	-238.7918	-47.3356	765.5939	10.318	10.6291	2.195	4.0268	-6.5074	12.4252	-0.0592	0.0182	-0.0073	-0.0462	0.0165	0.9585
15.649	28.6081	741.5145	62.0693	-234.462	-48.3736	754.6914	14.6427	27.1972	3.2941	10.8286	-9.4159	31.8529	-0.0592	0.0182	-0.0073	-0.0462	0.0165	0.9585
15.6623	29.8689	732.1226	63.3051	-230.202	-49.2404	743.9341	18.6988	51.7182	4.5367	20.9119	-12.3306	60.6236	-0.0592	0.0182	-0.0073	-0.0462	0.0165	0.9585
15.6756	31.3723	721.9324	64.1922	-225.7577	-49.7374	732.4697	21.2166	84.6016	5.7156	34.4545	-14.4961	99.2212	-0.0592	0.0182	-0.0073	-0.0462	0.0165	0.9585
15.6889	32.9569	709.564	64.4638	-220.7121	-49.6547	718.9534	20.4629	124.6545	6.4442	50.9682	-14.7729	146.2785	-0.0592	0.0182	-0.0073	-0.0462	0.0165	0.9585
15.7021	34.4348	693.4743	63.8608	-214.605	-48.7961	701.8701	15.4352	168.9925	6.246	69.2186	-12.1844	198.5224	-0.0592	0.0182	-0.0073	-0.0462	0.0165	0.9585
15.7154	35.6419	672.4139	62.1854	-207.0784	-47.0139	679.9812	6.7787	212.8548	4.7728	87.2059	-6.6589	250.4615	-0.0592	0.0182	-0.0073	-0.0462	0.0165	0.9585
15.7287	36.5007	645.7887	59.4078	-197.9834	-44.2934	652.6651	-3.163	251.3725	2.2647	102.9195	0.53333	296.2545	-0.0592	0.0182	-0.0073	-0.0462	0.0165	0.9585
15.742	36.9931	613.6901	55.6866	-187.3786	-40.7796	619.9732	-12.5942	282.1942	-1.1007	115.3686	8.4149	333.024	-0.0592	0.0182	-0.0073	-0.0462	0.0165	0.9585
15.7553	37.0969	576.6503	51.2867	-175.4429	-36.7226	582.3988	-20.6474	306.156	-4.7972	124.8972	16.0567	361.6671	-0.0592	0.0182	-0.0073	-0.0462	0.0165	0.9585
15.7686	36.7724	535.4156	46.4834	-162.4054	-32.3918	540.6639	-27.071	325.9085	-8.578	132.6044	23.0698	385.2662	-0.0592	0.0182	-0.0073	-0.0462	0.0165	0.9585
15.7819	35.9334	490.8244	41.4351	-148.5149	-27.9602	495.6121	-31.9735	344.7294	-12.1807	139.8527	29.2304	407.5883	-0.0592	0.0182	-0.0073	-0.0462	0.0165	0.9585
15.7951	34.4577	443.6691	36.2285	-133.9977	-23.5493	448.0453	-35.4876	365.7577	-15.7593	147.9258	34.769	432.1805	-0.0592	0.0182	-0.0073	-0.0462	0.0165	0.9585
15.8084	32.194	394.7124	30.947	-119.0586	-19.2846	398.7324	-37.765	391.6349	-19.4504	157.8939	39.9353	461.973	-0.0592	0.0182	-0.0073	-0.0462	0.0165	0.9585
15.8217	29.0054	344.705	25.7549	-103.8875	-15.3676	348.4231	-39.0248	424.143	-23.6256	170.4607	45.2286	498.9465	-0.0592	0.0182	-0.0073	-0.0462	0.0165	0.9585
15.835	24.7915	294.5296	20.852	-88.7158	-12.028	298.0045	-39.4535	463.8685	-28.4575	185.8474	50.9331	543.7021	-0.0592	0.0182	-0.0073	-0.0462	0.0165	0.9585
15.8483	19.5622	245.3241	16.4601	-73.8561	-9.4776	248.606	-39.2674	509.9696	-34.1886	203.6982	57.3722	595.2355	-0.0592	0.0182	-0.0073	-0.0462	0.0165	0.9585
15.8616	13.5532	198.5145	12.7153	-59.7223	-7.7808	201.6272	-38.7016	560.455	-40.7064	223.2175	64.4926	651.2318	-0.0592	0.0182	-0.0073	-0.0462	0.0165	0.9585
15.8749	7.25	155.6033	9.6729	-46.7667	-6.8475	158.5416	-37.9536	612.7051	-47.7816	243.3692	72.0776	708.7003	-0.0592	0.0182	-0.0073	-0.0462	0.0165	0.9585
15.8881	1.3223	117.8368	7.2825	-35.3693	-6.4282	120.5511	-37.1011	663.8166	-54.906	263.0224	79.5808	764.3278	-0.0592	0.0182	-0.0073	-0.0462	0.0165	0.9585
15.9014	-3.5893	85.8686	5.4583	-25.7316	-6.2428	88.2902	-36.1263	710.8078	-61.5961	281.0221	86.4364	814.7535	-0.0592	0.0182	-0.0073	-0.0462	0.0165	0.9585
15.9147	-7.0462	59.7408	4.0534	-17.8704	-6.008	61.8105	-34.9399	750.9517	-67.3434	296.3125	92.0498	856.946	-0.0592	0.0182	-0.0073	-0.0462	0.0165	0.9585
15.928	-8.8487	39.1078	2.9454	-11.6812	-5.5406	40.8023	-33.4537	782.0526	-71.8447	308.0355	96.0496	888.5278	-0.0592	0.0182	-0.0073	-0.0462	0.0165	0.9585
15.9413	-9.0166	23.4479	2.0235	-7.0031	-4.7411	24.7791	-31.6218	802.6809	-74.9214	315.6251	98.2339	908.0285	-0.0592	0.0182	-0.0073	-0.0462	0.0165	0.9585
15.9546	-7.87	12.1938	1.2578	-3.6588	-3.6819	13.201	-29.4274	812.3253	-76.5966	318.869	98.6381	915.0331	-0.0592	0.0182	-0.0073	-0.0462	0.0165	0.9585
